<svg width="104" height="38" viewBox="0 0 104 38" fill="none" xmlns="http://www.w3.org/2000/svg">
<g clip-path="url(#clip0_40_16)">
<path d="M9.16 4.28V26.8H19.96L19.28 32H2.6V4.28H9.16ZM40.3219 32H34.8419L34.5619 29.32C33.0152 31.56 30.8685 32.68 28.1219 32.68C26.1752 32.68 24.6952 32.0933 23.6819 30.92C22.6952 29.7467 22.2019 28.1067 22.2019 26V10.76H28.5219V25.2C28.5219 26.24 28.6819 26.9733 29.0019 27.4C29.3485 27.8 29.8685 28 30.5619 28C31.8952 28 33.0419 27.1733 34.0019 25.52V10.76H40.3219V32ZM54.4925 10.08C55.9592 10.08 57.2792 10.2933 58.4525 10.72C59.6258 11.1467 60.7325 11.8 61.7725 12.68L59.0525 16.44C57.7192 15.4267 56.3725 14.92 55.0125 14.92C53.5992 14.92 52.5325 15.44 51.8125 16.48C51.0925 17.52 50.7325 19.2 50.7325 21.52C50.7325 23.76 51.0925 25.3467 51.8125 26.28C52.5325 27.2133 53.5725 27.68 54.9325 27.68C55.6525 27.68 56.3058 27.5733 56.8925 27.36C57.4792 27.12 58.1858 26.7467 59.0125 26.24L61.7725 30.16C59.6658 31.84 57.2792 32.68 54.6125 32.68C52.4525 32.68 50.5858 32.2267 49.0125 31.32C47.4392 30.3867 46.2258 29.0933 45.3725 27.44C44.5192 25.76 44.0925 23.8 44.0925 21.56C44.0925 19.32 44.5192 17.3333 45.3725 15.6C46.2258 13.8667 47.4392 12.52 49.0125 11.56C50.5858 10.5733 52.4125 10.08 54.4925 10.08ZM80.9225 25.84C80.9225 26.64 81.0292 27.2267 81.2425 27.6C81.4825 27.9733 81.8558 28.2533 82.3625 28.44L81.0425 32.56C79.7358 32.4533 78.6692 32.1733 77.8425 31.72C77.0158 31.24 76.3758 30.4933 75.9225 29.48C74.5358 31.6133 72.4025 32.68 69.5225 32.68C67.4158 32.68 65.7358 32.0667 64.4825 30.84C63.2292 29.6133 62.6025 28.0133 62.6025 26.04C62.6025 23.72 63.4558 21.9467 65.1625 20.72C66.8692 19.4933 69.3358 18.88 72.5625 18.88H74.7225V17.96C74.7225 16.7067 74.4558 15.8533 73.9225 15.4C73.3892 14.92 72.4558 14.68 71.1225 14.68C70.4292 14.68 69.5892 14.7867 68.6025 15C67.6158 15.1867 66.6025 15.4533 65.5625 15.8L64.1225 11.64C65.4558 11.1333 66.8158 10.7467 68.2025 10.48C69.6158 10.2133 70.9225 10.08 72.1225 10.08C75.1625 10.08 77.3892 10.7067 78.8025 11.96C80.2158 13.2133 80.9225 15.0933 80.9225 17.6V25.84ZM71.3625 28.16C72.8025 28.16 73.9225 27.48 74.7225 26.12V22.36H73.1625C71.7225 22.36 70.6425 22.6133 69.9225 23.12C69.2292 23.6267 68.8825 24.4133 68.8825 25.48C68.8825 26.3333 69.0958 27 69.5225 27.48C69.9758 27.9333 70.5892 28.16 71.3625 28.16ZM93.0459 10.08C94.5659 10.08 95.9926 10.3067 97.3259 10.76C98.6593 11.2133 99.8326 11.8533 100.846 12.68L98.5259 16.24C96.7926 15.1467 95.0459 14.6 93.2859 14.6C92.4593 14.6 91.8193 14.7467 91.3659 15.04C90.9393 15.3067 90.7259 15.6933 90.7259 16.2C90.7259 16.6 90.8193 16.9333 91.0059 17.2C91.2193 17.44 91.6326 17.6933 92.2459 17.96C92.8593 18.2267 93.8059 18.5467 95.0859 18.92C97.2993 19.56 98.9393 20.4 100.006 21.44C101.099 22.4533 101.646 23.8667 101.646 25.68C101.646 27.12 101.233 28.3733 100.406 29.44C99.5793 30.48 98.4459 31.28 97.0059 31.84C95.5659 32.4 93.9659 32.68 92.2059 32.68C90.4193 32.68 88.7526 32.4 87.2059 31.84C85.6859 31.28 84.3926 30.5067 83.3259 29.52L86.4059 26.08C88.1926 27.4667 90.0726 28.16 92.0459 28.16C93.0059 28.16 93.7526 27.9867 94.2859 27.64C94.8459 27.2933 95.1259 26.8 95.1259 26.16C95.1259 25.6533 95.0193 25.2533 94.8059 24.96C94.5926 24.6667 94.1793 24.4 93.5659 24.16C92.9526 23.8933 91.9793 23.5733 90.6459 23.2C88.5393 22.5867 86.9659 21.7333 85.9259 20.64C84.8859 19.5467 84.3659 18.1867 84.3659 16.56C84.3659 15.3333 84.7126 14.24 85.4059 13.28C86.1259 12.2933 87.1393 11.52 88.4459 10.96C89.7793 10.3733 91.3126 10.08 93.0459 10.08Z" fill="black"/>
</g>
<defs>
<clipPath id="clip0_40_16">
<rect width="104" height="38" fill="white"/>
</clipPath>
</defs>
</svg>
